Christy Moore For One Night Only [RTE Ireland] HQ PDTV x264 AC3 DeViL303

Music legend Christy Moore discusses his life and work and plays some of his classic songs when he joins Gay Byrne on For One Night Only on RTÉ One 


In the programme Moore talks about the influence the Clancy Brothers and civil rights fundraiser Dominic Behan had on his work and his own role as a social commentator in song.

He pays tribute to his late mother and discusses how she inspired him to write Yellow Furze Woman, which he also performs.

Moore also tells of writing Me and the Rose about former Rose of Tralee Brenda Hyland, and how thoughts of her took his imagination to far-off places.

The show features Moore performing his favourite song, Lord Baker, a cappella, and among the other classics in his set are Ordinary Man, Nancy Spain and Lisdoonvarna.

File Info:
Complete name                            : Christy Moore For One Night Only [RTE Ireland] HQ PDTV x264 AC3 DeViL303.mkv
Format                                   : Matroska
Format version                           : Version 1
File size                                : 581 MiB
Duration                                 : 54mn 15s
Overall bit rate mode                    : Variable
Overall bit rate                         : 1 497 Kbps
Encoded date                             : UTC 2013-02-21 18:07:14
Writing application                      : mkvmerge v2.5.3 ('Boogie') built on Mar  7 2009 15:00:41
Writing library                          : libebml v0.7.7 + libmatroska v0.8.1

Video
ID                                       : 1
Format                                   : AVC
Format/Info                              : Advanced Video Codec
Format profile                           : High@L3.0
Format settings, CABAC                   : Yes
Format settings, ReFrames                : 3 frames
Codec ID                                 : V_MPEG4/ISO/AVC
Duration                                 : 54mn 15s
Bit rate mode                            : Variable
Bit rate                                 : 1 303 Kbps
Maximum bit rate                         : 12.0 Mbps
Width                                    : 720 pixels
Height                                   : 576 pixels
Display aspect ratio                     : 16:9
Original display aspect ratio            : 5:4
Frame rate mode                          : Constant
Frame rate                               : 25.000 fps
Standard                                 : PAL
Color space                              : YUV
Chroma subsampling                       : 4:2:0
Bit depth                                : 8 bits
Scan type                                : Progressive
Bits/(Pixel*Frame)                       : 0.126
Stream size                              : 495 MiB (85%)
Writing library                          : x264 core 93 r1542M 5b86182
Encoding settings                        : cabac=1 / ref=3 / deblock=1:-1:-1 / 
Default                                  : Yes
Forced                                   : No

Audio
ID                                       : 2
Format                                   : AC-3
Format/Info                              : Audio Coding 3
Mode extension                           : CM (complete main)
Format settings, Endianness              : Big
Codec ID                                 : A_AC3
Duration                                 : 54mn 15s
Bit rate mode                            : Constant
Bit rate                                 : 192 Kbps
Channel(s)                               : 2 channels
Channel positions                        : Front: L R
Sampling rate                            : 48.0 KHz
Bit depth                                : 16 bits
Compression mode                         : Lossy
Stream size                              : 74.5 MiB (13%)
Default                                  : Yes
Forced                                   : No